<svg width="107" height="106" viewBox="0 0 107 106" fill="none" xmlns="http://www.w3.org/2000/svg">
<g filter="url(#filter0_d_1_12)">
<rect x="4" y="0.192749" width="99" height="97.8072" rx="15" fill="url(#paint0_radial_1_12)" shape-rendering="crispEdges"/>
</g>
<path d="M30.2159 18.7273H35.7614V34.8182C35.7538 36.3258 35.3939 37.6439 34.6818 38.7727C33.9697 39.8939 32.9848 40.7652 31.7273 41.3864C30.4773 42.0076 29.0303 42.3182 27.3864 42.3182C25.9318 42.3182 24.6098 42.0644 23.4205 41.5568C22.2386 41.0492 21.2955 40.2614 20.5909 39.1932C19.8939 38.125 19.5492 36.7576 19.5568 35.0909H25.1591C25.1818 35.6894 25.2955 36.2008 25.5 36.625C25.7121 37.0417 26.0038 37.3561 26.375 37.5682C26.7462 37.7803 27.1894 37.8864 27.7045 37.8864C28.2424 37.8864 28.697 37.7727 29.0682 37.5455C29.4394 37.3106 29.7197 36.9659 29.9091 36.5114C30.1061 36.0568 30.2083 35.4924 30.2159 34.8182V18.7273ZM61.2585 30.3636C61.2585 32.9242 60.7661 35.0947 59.7812 36.875C58.7964 38.6553 57.4631 40.0076 55.7812 40.9318C54.107 41.8561 52.2282 42.3182 50.1449 42.3182C48.054 42.3182 46.1714 41.8523 44.4972 40.9205C42.8229 39.9886 41.4934 38.6364 40.5085 36.8636C39.5312 35.0833 39.0426 32.9167 39.0426 30.3636C39.0426 27.803 39.5312 25.6326 40.5085 23.8523C41.4934 22.072 42.8229 20.7197 44.4972 19.7955C46.1714 18.8712 48.054 18.4091 50.1449 18.4091C52.2282 18.4091 54.107 18.8712 55.7812 19.7955C57.4631 20.7197 58.7964 22.072 59.7812 23.8523C60.7661 25.6326 61.2585 27.803 61.2585 30.3636ZM55.5085 30.3636C55.5085 28.8485 55.2926 27.5682 54.8608 26.5227C54.4366 25.4773 53.8229 24.6856 53.0199 24.1477C52.2244 23.6098 51.2661 23.3409 50.1449 23.3409C49.0313 23.3409 48.0729 23.6098 47.2699 24.1477C46.4669 24.6856 45.8494 25.4773 45.4176 26.5227C44.9934 27.5682 44.7812 28.8485 44.7812 30.3636C44.7812 31.8788 44.9934 33.1591 45.4176 34.2045C45.8494 35.25 46.4669 36.0417 47.2699 36.5795C48.0729 37.1174 49.0313 37.3864 50.1449 37.3864C51.2661 37.3864 52.2244 37.1174 53.0199 36.5795C53.8229 36.0417 54.4366 35.25 54.8608 34.2045C55.2926 33.1591 55.5085 31.8788 55.5085 30.3636ZM64.5426 42V18.7273H74.2472C75.9896 18.7273 77.4479 18.9735 78.6222 19.4659C79.804 19.9583 80.6903 20.6477 81.2812 21.5341C81.8797 22.4205 82.179 23.447 82.179 24.6136C82.179 25.5 81.9934 26.2917 81.6222 26.9886C81.2509 27.678 80.7396 28.25 80.0881 28.7045C79.4366 29.1591 78.6828 29.4773 77.8267 29.6591V29.8864C78.7661 29.9318 79.6335 30.1856 80.429 30.6477C81.232 31.1098 81.8759 31.7538 82.3608 32.5795C82.8456 33.3977 83.0881 34.3674 83.0881 35.4886C83.0881 36.7386 82.7699 37.8561 82.1335 38.8409C81.4972 39.8182 80.5767 40.5909 79.3722 41.1591C78.1676 41.7197 76.7055 42 74.9858 42H64.5426ZM70.1676 37.4659H73.6449C74.8646 37.4659 75.7623 37.2348 76.3381 36.7727C76.9214 36.3106 77.2131 35.6667 77.2131 34.8409C77.2131 34.2424 77.0729 33.7273 76.7926 33.2955C76.5123 32.8561 76.1146 32.5189 75.5994 32.2841C75.0843 32.0417 74.4669 31.9205 73.7472 31.9205H70.1676V37.4659ZM70.1676 28.2955H73.2812C73.8949 28.2955 74.4403 28.1932 74.9176 27.9886C75.3949 27.7841 75.7661 27.4886 76.0312 27.1023C76.304 26.7159 76.4403 26.25 76.4403 25.7045C76.4403 24.9242 76.1638 24.3106 75.6108 23.8636C75.0578 23.4167 74.3116 23.1932 73.3722 23.1932H70.1676V28.2955ZM26.4545 57.7273L30.7045 65.0795H30.8864L35.1818 57.7273H41.4773L34.4545 69.3636L41.7045 81H35.25L30.8864 73.5682H30.7045L26.3409 81H19.9318L27.1477 69.3636L20.1136 57.7273H26.4545ZM44.3864 81V57.7273H54C55.7424 57.7273 57.2462 58.0682 58.5114 58.75C59.7841 59.4242 60.7652 60.3674 61.4545 61.5795C62.1439 62.7841 62.4886 64.1856 62.4886 65.7841C62.4886 67.3902 62.1364 68.7955 61.4318 70C60.7348 71.197 59.7386 72.125 58.4432 72.7841C57.1477 73.4432 55.6098 73.7727 53.8295 73.7727H47.8977V69.3409H52.7841C53.6326 69.3409 54.3409 69.1932 54.9091 68.8977C55.4848 68.6023 55.9205 68.1894 56.2159 67.6591C56.5114 67.1212 56.6591 66.4962 56.6591 65.7841C56.6591 65.0644 56.5114 64.4432 56.2159 63.9205C55.9205 63.3902 55.4848 62.9811 54.9091 62.6932C54.3333 62.4053 53.625 62.2614 52.7841 62.2614H50.0114V81H44.3864Z" fill="white"/>
<rect x="13" y="84.1687" width="4" height="3.95181" rx="1.9759" fill="white"/>
<rect x="91" y="11" width="2" height="21.7349" rx="1" fill="#D1D1D1" fill-opacity="0.35"/>
<rect x="69" y="87" width="2" height="21.7349" rx="1" transform="rotate(-90 69 87)" fill="#D1D1D1" fill-opacity="0.35"/>
<rect x="15" y="11" width="2" height="21.7349" rx="1" transform="rotate(-90 15 11)" fill="#D1D1D1" fill-opacity="0.35"/>
<defs>
<filter id="filter0_d_1_12" x="0" y="0.192749" width="107" height="105.807" filterUnits="userSpaceOnUse" color-interpolation-filters="sRGB">
<feFlood flood-opacity="0" result="BackgroundImageFix"/>
<feColorMatrix in="SourceAlpha" type="matrix" values="0 0 0 0 0 0 0 0 0 0 0 0 0 0 0 0 0 0 127 0" result="hardAlpha"/>
<feOffset dy="4"/>
<feGaussianBlur stdDeviation="2"/>
<feComposite in2="hardAlpha" operator="out"/>
<feColorMatrix type="matrix" values="0 0 0 0 0 0 0 0 0 0 0 0 0 0 0 0 0 0 0.25 0"/>
<feBlend mode="normal" in2="BackgroundImageFix" result="effect1_dropShadow_1_12"/>
<feBlend mode="normal" in="SourceGraphic" in2="effect1_dropShadow_1_12" result="shape"/>
</filter>
<radialGradient id="paint0_radial_1_12" cx="0" cy="0" r="1" gradientUnits="userSpaceOnUse" gradientTransform="translate(-3.99999 -11.6627) rotate(48.5905) scale(133.044 133.255)">
<stop offset="0.34375" stop-color="#3474F1" stop-opacity="0.86"/>
<stop offset="1" stop-color="#CA1D3C" stop-opacity="0.68"/>
</radialGradient>
</defs>
</svg>
